<svg xmlns="http://www.w3.org/2000/svg" xmlns:xlink="http://www.w3.org/1999/xlink" version="1.1" x="0px" y="0px" viewBox="0 0 66 82.5" enable-background="new 0 0 66 66" xml:space="preserve"><g><g><path d="M15.5,35.9c1.9,0,7.9-0.2,7.9-3.2c0-3.3-2-6.2-4.9-7.3c0.6-0.7,1-1.6,1-2.6c0-2.2-1.8-4-4-4s-4,1.8-4,4c0,1,0.4,1.9,1,2.6    c-2.9,1.2-4.9,4-4.9,7.3C7.6,35.7,13.7,35.9,15.5,35.9z M13.5,22.8c0-1.1,0.9-2,2-2s2,0.9,2,2c0,1.1-0.9,2-2,2    S13.5,23.9,13.5,22.8z M15.5,26.8c3.3,0,5.9,2.7,5.9,5.9c-0.2,0.4-2.2,1.2-6,1.2c-3.8,0-5.8-0.8-5.9-1.2    C9.6,29.5,12.3,26.8,15.5,26.8z"/></g><g><path d="M20.9,11.4h19.2c0.6,0,1-0.4,1-1c0-0.6-0.4-1-1-1H20.9c-0.6,0-1,0.4-1,1C19.9,11,20.4,11.4,20.9,11.4z"/></g><g><path d="M41.2,18.1c0-0.6-0.4-1-1-1H25c-0.6,0-1,0.4-1,1c0,0.6,0.4,1,1,1h15.1C40.7,19.1,41.2,18.6,41.2,18.1z"/></g><g><path d="M40.2,24.7H27c-0.6,0-1,0.4-1,1c0,0.6,0.4,1,1,1h13.1c0.6,0,1-0.4,1-1C41.2,25.1,40.7,24.7,40.2,24.7z"/></g><g><path d="M37,32.3h-7.9c-0.6,0-1,0.4-1,1s0.4,1,1,1H37c0.6,0,1-0.4,1-1S37.6,32.3,37,32.3z"/></g><g><path d="M23.6,39.9h-15c-0.6,0-1,0.4-1,1c0,0.6,0.4,1,1,1h15c0.6,0,1-0.4,1-1C24.6,40.3,24.2,39.9,23.6,39.9z"/></g><g><path d="M20.2,47.5H8.6c-0.6,0-1,0.4-1,1c0,0.6,0.4,1,1,1h11.6c0.6,0,1-0.4,1-1C21.2,47.9,20.7,47.5,20.2,47.5z"/></g><g><path d="M16.5,55.1H8.6c-0.6,0-1,0.4-1,1c0,0.6,0.4,1,1,1h7.9c0.6,0,1-0.4,1-1C17.5,55.5,17,55.1,16.5,55.1z"/></g><g><path d="M64.4,21.8l-4.3-4.3c-0.8-0.8-2.1-0.8-2.8,0l-9.5,9.5V5.8c0-1.7-1.4-3-3-3c-33.2,0-31.1-0.1-31.4,0.1    C13,3,1.2,14.8,1.1,15.2c-0.1,0.4,0-2.5-0.1,45c0,1.7,1.4,3,3,3h40.7c1.7,0,3-1.4,3-3V41.3l16.7-16.7    C65.2,23.9,65.2,22.6,64.4,21.8z M46.1,40.1c-0.1,0-0.1,0.1-0.2,0.2L35.4,50.8L34,49.4l22.8-22.8l1.4,1.4L46.1,40.1z M30.2,48.4    l3.4,3.4l-5.1,1.7L30.2,48.4z M32.6,48l-1.4-1.4L54,23.7l1.4,1.4L32.6,48z M12.7,6.2v8.3H4.4L12.7,6.2z M45.8,60.2    c0,0.6-0.5,1-1,1H4c-0.6,0-1-0.5-1-1V16.5h10.7c0.6,0,1-0.4,1-1V4.8h30c0.6,0,1,0.5,1,1v23.3L29,45.8c-0.3,0.3-0.2,0.3-3.1,9    c-0.2,0.6,0.3,1.3,0.9,1.3c0.1,0,0.2,0,0.3-0.1l8.6-2.9c0,0,0,0,0,0c0.1,0,0.3-0.1,0.4-0.2l9.6-9.6V60.2z M59.7,26.6l-4.3-4.3    l3.3-3.3l4.3,4.3L59.7,26.6z"/></g></g><text x="0" y="81" fill="#000000" font-size="5px" font-weight="bold" font-family="'Helvetica Neue', Helvetica, Arial-Unicode, Arial, Sans-serif">Created by ProSymbols</text><text x="0" y="86" fill="#000000" font-size="5px" font-weight="bold" font-family="'Helvetica Neue', Helvetica, Arial-Unicode, Arial, Sans-serif">from the Noun Project</text></svg>