<svg xmlns="http://www.w3.org/2000/svg" xmlns:xlink="http://www.w3.org/1999/xlink" version="1.1" enable-background="new 0 0 66 66" xml:space="preserve" width="64" height="60"><rect id="backgroundrect" width="100%" height="100%" x="0" y="0" fill="none" stroke="none" class="" style=""/><g class="currentLayer" style=""><title>Layer 1</title><g id="svg_1" class=""><g id="svg_2"><path d="M14.5,33.12499990463257 c1.9,0 7.9,-0.2 7.9,-3.2 c0,-3.3 -2,-6.2 -4.9,-7.3 c0.6000000000000001,-0.7000000000000001 1,-1.6 1,-2.6 c0,-2.2 -1.8,-4 -4,-4 s-4,1.8 -4,4 c0,1 0.4,1.9 1,2.6 c-2.9,1.2 -4.9,4 -4.9,7.3 C6.6,32.92499990463257 12.7,33.12499990463257 14.5,33.12499990463257 zM12.5,20.02499990463257 c0,-1.1 0.9,-2 2,-2 s2,0.9 2,2 c0,1.1 -0.9,2 -2,2 S12.5,21.124999904632567 12.5,20.02499990463257 zM14.5,24.02499990463257 c3.3,0 5.9,2.7 5.9,5.9 c-0.2,0.4 -2.2,1.2 -6,1.2 c-3.8,0 -5.8,-0.8 -5.9,-1.2 C8.6,26.72499990463257 11.3,24.02499990463257 14.5,24.02499990463257 z" id="svg_3"/></g><g id="svg_4"><path d="M19.9,8.624999904632569 h19.2 c0.6000000000000001,0 1,-0.4 1,-1 c0,-0.6000000000000001 -0.4,-1 -1,-1 H19.9 c-0.6000000000000001,0 -1,0.4 -1,1 C18.9,8.224999904632568 19.4,8.624999904632569 19.9,8.624999904632569 z" id="svg_5"/></g><g id="svg_6"><path d="M40.2,15.32499990463257 c0,-0.6000000000000001 -0.4,-1 -1,-1 H24 c-0.6000000000000001,0 -1,0.4 -1,1 c0,0.6000000000000001 0.4,1 1,1 h15.1 C39.7,16.32499990463257 40.2,15.82499990463257 40.2,15.32499990463257 z" id="svg_7"/></g><g id="svg_8"><path d="M39.2,21.924999904632568 H26 c-0.6000000000000001,0 -1,0.4 -1,1 c0,0.6000000000000001 0.4,1 1,1 h13.1 c0.6000000000000001,0 1,-0.4 1,-1 C40.2,22.32499990463257 39.7,21.924999904632568 39.2,21.924999904632568 z" id="svg_9"/></g><g id="svg_10"><path d="M36,29.524999904632566 h-7.9 c-0.6000000000000001,0 -1,0.4 -1,1 s0.4,1 1,1 H36 c0.6000000000000001,0 1,-0.4 1,-1 S36.6,29.524999904632566 36,29.524999904632566 z" id="svg_11"/></g><g id="svg_12"><path d="M22.6,37.12499990463257 h-15 c-0.6000000000000001,0 -1,0.4 -1,1 c0,0.6000000000000001 0.4,1 1,1 h15 c0.6000000000000001,0 1,-0.4 1,-1 C23.6,37.524999904632566 23.2,37.12499990463257 22.6,37.12499990463257 z" id="svg_13"/></g><g id="svg_14"><path d="M19.2,44.72499990463257 H7.6 c-0.6000000000000001,0 -1,0.4 -1,1 c0,0.6000000000000001 0.4,1 1,1 h11.6 c0.6000000000000001,0 1,-0.4 1,-1 C20.2,45.12499990463257 19.7,44.72499990463257 19.2,44.72499990463257 z" id="svg_15"/></g><g id="svg_16"><path d="M15.5,52.32499990463257 H7.6 c-0.6000000000000001,0 -1,0.4 -1,1 c0,0.6000000000000001 0.4,1 1,1 h7.9 c0.6000000000000001,0 1,-0.4 1,-1 C16.5,52.72499990463257 16,52.32499990463257 15.5,52.32499990463257 z" id="svg_17"/></g><g id="svg_18"><path d="M63.400000000000006,19.02499990463257 l-4.3,-4.3 c-0.8,-0.8 -2.1,-0.8 -2.8,0 l-9.5,9.5 V3.024999904632568 c0,-1.7000000000000002 -1.4,-3 -3,-3 c-33.2,0 -31.1,-0.1 -31.4,0.1 C12,0.22499990463256836 0.19999999999999996,12.024999904632569 0.10000000000000009,12.424999904632568 c-0.1,0.4 0,-2.5 -0.1,45 c0,1.7000000000000002 1.4,3 3,3 h40.7 c1.7000000000000002,0 3,-1.4 3,-3 V38.524999904632566 l16.7,-16.7 C64.2,21.124999904632567 64.2,19.82499990463257 63.400000000000006,19.02499990463257 zM45.1,37.32499990463257 c-0.1,0 -0.1,0.1 -0.2,0.2 L34.4,48.024999904632566 L33,46.62499990463257 l22.8,-22.8 l1.4,1.4 L45.1,37.32499990463257 zM29.2,45.62499990463257 l3.4,3.4 l-5.1,1.7000000000000002 L29.2,45.62499990463257 zM31.6,45.22499990463257 l-1.4,-1.4 L53,20.924999904632568 l1.4,1.4 L31.6,45.22499990463257 zM11.7,3.4249999046325685 v8.3 H3.4000000000000004 L11.7,3.4249999046325685 zM44.8,57.42499990463257 c0,0.6000000000000001 -0.5,1 -1,1 H3 c-0.6000000000000001,0 -1,-0.5 -1,-1 V13.724999904632568 h10.7 c0.6000000000000001,0 1,-0.4 1,-1 V2.024999904632568 h30 c0.6000000000000001,0 1,0.5 1,1 v23.3 L28,43.024999904632566 c-0.30000000000000004,0.30000000000000004 -0.2,0.30000000000000004 -3.1,9 c-0.2,0.6000000000000001 0.30000000000000004,1.3 0.9,1.3 c0.1,0 0.2,0 0.30000000000000004,-0.1 l8.6,-2.9 c0,0 0,0 0,0 c0.1,0 0.30000000000000004,-0.1 0.4,-0.2 l9.6,-9.6 V57.42499990463257 zM58.7,23.82499990463257 l-4.3,-4.3 l3.3,-3.3 l4.3,4.3 L58.7,23.82499990463257 z" id="svg_19"/></g></g></g></svg>