<svg xmlns="http://www.w3.org/2000/svg" xmlns:xlink="http://www.w3.org/1999/xlink" version="1.1" x="0px" y="0px" viewBox="0 0 512 640" enable-background="new 0 0 512 512" xml:space="preserve"><path d="M73.027,338.688c-0.546-1.563-2.256-2.389-3.821-1.844c-1.564,0.547-2.39,2.256-1.845,3.82  c2.856,8.188,6.343,16.238,10.36,23.93c0.536,1.024,1.58,1.611,2.662,1.611c0.468,0,0.942-0.109,1.387-0.342  c1.468-0.769,2.036-2.58,1.27-4.049C79.156,354.383,75.787,346.604,73.027,338.688z"/><path d="M176.538,188.088c-0.262-1.182-1.208-2.091-2.4-2.305c-1.188-0.212-2.396,0.311-3.051,1.33l-10.717,16.651l-7.463,11.817  c-0.885,1.401-0.467,3.254,0.935,4.139c0.497,0.314,1.051,0.464,1.599,0.464c0.995,0,1.969-0.495,2.539-1.398l2.666-4.222  c0.126-0.011,0.252-0.03,0.379-0.058l7.918-1.733c0.058-0.013,0.115-0.027,0.172-0.043c6.799-1.915,10.928-8.816,9.4-15.711  L176.538,188.088z"/><path d="M443.992,275.788c-1.006-1.067-2.64-1.252-3.854-0.437c-0.149,0.102-6.291,4.224-16.751,11.438l14.098-39.184  c0.491-1.37-0.069-2.895-1.332-3.619c-1.262-0.723-2.863-0.436-3.795,0.681c-4.813,5.768-9.85,11.879-14.969,18.161  c-0.273,0.337-0.548,0.677-0.821,1.014c-1.563-16.149-5.287-31.938-11.113-47.04c-10.665-27.643-28.064-52.408-50.316-71.619  c-22.247-19.207-48.932-32.738-77.31-39.273c0.078-1.816,0.516-3.623,1.352-5.313l22.807-46.154  c0.666-1.346,0.231-2.978-1.015-3.817c-1.243-0.837-2.92-0.628-3.917,0.496L254.87,98.577c0.673-2.427,1.317-4.862,1.926-7.305  l1.054-4.227c0.479-1.925-0.272-3.886-1.917-4.996c-1.646-1.11-3.744-1.073-5.35,0.091l-72.496,52.606  c-15.114,10.968-27.643,25.529-36.226,42.104L96.8,263.4l-16.316,31.959c-0.64,1.254-0.322,2.783,0.763,3.681l20.095,16.571  c4.813,3.97,10.616,5.941,16.408,5.941c6.146,0,12.279-2.223,17.191-6.639l106.595-93.933c0.776-0.698,1.436-1.649,1.595-3.75  c0.01-0.003,0.019-0.003,0.028-0.006c0.232-0.071,23.483-6.917,41.836,4.929c11.897,7.68,19.238,21.57,21.815,41.284  c4.26,32.561-18.918,58.193-45.754,87.875c-24.972,27.621-53.227,58.896-60.104,100.542c-17.436-3.746-34.341-9.979-49.227-18.291  c-10.206-5.698-19.922-12.616-28.876-20.563c-9.675-8.586-17.423-18.016-24.355-26.926l-0.232-0.299  c-1.863-2.394-3.624-4.654-5.157-7.09c-0.883-1.402-2.736-1.824-4.138-0.94c-1.402,0.883-1.823,2.735-0.94,4.138  c1.693,2.688,3.629,5.174,5.5,7.578l0.231,0.299c7.109,9.137,15.071,18.82,25.109,27.729c9.278,8.232,19.35,15.403,29.934,21.313  c22.952,12.814,50.521,20.881,77.629,22.714c3.61,0.244,7.249,0.366,10.906,0.366c19.495,0,39.497-3.449,58.458-10.129  c21.024-7.406,40.388-18.457,57.551-32.846c17.487-14.661,31.674-31.949,42.164-51.384c0.041-0.075,0.064-0.155,0.099-0.233  l24.175-34.062c0.676-0.953,0.738-2.211,0.158-3.225c-0.579-1.016-1.692-1.602-2.859-1.501c-1.115,0.095-3.072,0.106-3.594-0.89  c-1.271-2.422,1.464-10.152,7.419-17.375c0.023-0.03,0.049-0.062,0.071-0.092l23.218-30.487  C445.083,278.495,444.997,276.855,443.992,275.788z M422.04,266.62c1.332-1.636,2.658-3.259,3.977-4.867l-11.123,30.918  c-8.708,6.054-19.324,13.507-31.287,22.047c10.572-13.399,21.331-26.971,32.146-40.348c0.568-0.358,1.013-0.89,1.239-1.528  C418.673,270.764,420.355,268.688,422.04,266.62z M251.604,111.282l35.13-39.522l-12.937,26.181c-1.47,2.973-2.129,6.193-1.983,9.39  c-0.031,0.099-0.072,0.191-0.096,0.295c-0.167,0.777-0.01,1.544,0.37,2.174c0.308,1.726,0.849,3.423,1.636,5.05  c2.602,5.384,7.446,9.192,13.293,10.448l3.922,0.843l-39.434,22.027c0.164-7.83-0.61-16.992-2.85-27.717  c-0.079-0.382-0.233-0.728-0.436-1.035c0.898-2.494,1.762-4.999,2.591-7.515C251.1,111.742,251.373,111.543,251.604,111.282z   M261.827,171.408c1.694,6.326,6.101,11.474,12.09,14.124l5.457,2.414l-42.193,2.482c-0.117-0.375-0.229-0.738-0.351-1.122  c-0.133-0.422-0.269-0.843-0.402-1.264c3.41-2.815,12.499-12.151,14.646-32.759l22.152-12.374l-7.986,10.222  C261.376,158.419,260.132,165.081,261.827,171.408z M244.242,129.843c4.731,31.862-5.077,46.7-9.882,51.863  c-2.827-8.478-5.441-15.668-6.15-17.603l7.003-14.122C238.48,143.394,241.483,136.668,244.242,129.843z M130.951,310.436  c-7.335,6.596-18.183,6.825-25.792,0.551l-18.236-15.041l9.116-17.855c0.337,0.104,0.693,0.16,1.063,0.137  c3.22-0.184,6.303,0.885,8.708,3.021c2.404,2.137,3.832,5.082,4.021,8.294c0.094,1.594,1.416,2.823,2.992,2.823  c0.06,0,0.119-0.002,0.179-0.006c1.654-0.096,2.916-1.517,2.819-3.17c-0.283-4.812-2.423-9.226-6.024-12.426  c-3.03-2.693-6.8-4.244-10.78-4.505l3.117-6.104l45.052-86.536c8.158-15.754,20.063-29.59,34.424-40.012l69.53-50.456l-0.168,0.673  c-4.94,19.835-12.052,39.179-21.135,57.492l-7.26,14.639c-0.549,1.109-0.634,2.416-0.208,3.654  c4.73,12.765,9.418,26.971,12.225,37.309c-0.398,0.146-0.773,0.37-1.093,0.689l-10.004,10.004c-0.054-0.003-0.105-0.016-0.16-0.016  c-0.005,0-0.01,0.001-0.015,0.001l-9.665-9.666v-11.826c0-1.657-1.343-3-3-3c-1.657,0-3,1.343-3,3v13.068  c0,0.795,0.316,1.559,0.879,2.121l11.801,11.801v10.434l-9.206,9.206l-9.76-9.76v-11.825c0-1.657-1.343-3-3-3c-1.657,0-3,1.343-3,3  v13.068c0,0.795,0.316,1.559,0.879,2.121l10.926,10.926L130.951,310.436z M237.16,216.842l-10.822,9.537v-7.124l9.874-9.875  C237.01,212.97,237.379,215.607,237.16,216.842z M312.76,262.661c-2.816-21.541-11.063-36.865-24.512-45.545  c-18.35-11.845-40.193-7.348-45.596-5.968c-0.591-3.467-1.736-8.221-3.675-14.818l53.115-3.124c1.383-0.081,2.53-1.098,2.776-2.461  c0.246-1.363-0.472-2.717-1.738-3.277l-16.784-7.425c-4.32-1.911-7.5-5.625-8.724-10.188c-1.222-4.564-0.325-9.371,2.403-13.108  l16.024-20.505c0.177-0.225,0.302-0.47,0.402-0.722l14.359-8.021c1.091-0.608,1.689-1.829,1.505-3.064  c-0.186-1.235-1.116-2.226-2.338-2.488l-11.701-2.514c-3.969-0.853-7.26-3.418-9.068-7.043c26.412,6.54,51.209,19.382,72.006,37.337  c21.509,18.568,38.328,42.51,48.641,69.237c1.271,3.293,2.435,6.622,3.497,9.979l-6.585,6.29l-9.809-9.809v-11.826  c0-0.21-0.022-0.416-0.063-0.614c-0.238-1.419-1.465-2.502-2.95-2.502c-1.657,0-3,1.343-3,3v12.936l-9.205,9.206l-9.761-9.76  v-11.826c0-0.23-0.031-0.451-0.08-0.667v-0.247c0-1.657-1.344-3-3-3c-1.657,0-3,1.343-3,3v12.935l-9.206,9.206l-9.761-9.76v-11.826  c0-1.657-1.343-3-3-3c-1.656,0-3,1.343-3,3v13.068c0,0.795,0.316,1.559,0.88,2.121l12.76,12.76c0.586,0.586,1.354,0.879,2.121,0.879  c0.767,0,1.535-0.293,2.121-0.878l10.223-10.222l10.582,10.581c0.563,0.563,1.325,0.878,2.121,0.878s1.559-0.316,2.121-0.879  l10.587-10.587l10.149,10.149c0.585,0.585,1.354,0.878,2.121,0.878c0.746,0,1.492-0.276,2.072-0.831l6.472-6.182  c3.142,11.458,5.085,23.234,5.814,35.189c-14.395,17.806-28.686,35.945-42.563,53.563l-2.543,3.229  c-0.414,0.301-0.836,0.606-1.253,0.91v-1.965c0-1.656-1.343-3-3-3c-1.656,0-3,1.344-3,3v6.324c-1.962,1.43-3.938,2.872-5.938,4.338  c-2.917,2.137-5.644,4.377-8.208,6.689c-2.52-2.981-4.172-6.395-4.832-9.836v-6.846c0.01-0.252,0-0.5-0.051-0.74  c-0.242-1.414-1.467-2.492-2.949-2.492c-1.64,0-2.965,1.314-2.994,2.947c-0.432,2.486-0.423,5.047-0.006,7.592v5.396l-9.206,9.205  l-9.76-9.76v-11.826c0-0.23-0.031-0.453-0.081-0.67v-0.244c0-1.656-1.344-3-3-3c-1.657,0-3,1.344-3,3v12.936l-9.205,9.207  l-9.762-9.762v-11.581C305.249,307.236,315.9,286.67,312.76,262.661z M302.479,354.057l9.354-9.354l9.511,9.511  c-0.277,3.074-0.576,6.576,0.102,9.903v1.747l-9.205,9.205l-9.761-9.762L302.479,354.057L302.479,354.057z M327.447,363.468  c-0.001-0.004-0.002-0.008-0.003-0.012v-8.961l10.173-10.172c0.771,1.217,1.645,2.393,2.615,3.515  C335.297,352.831,331.064,358.104,327.447,363.468z M293.8,446.095c-21.754,7.665-44.908,10.933-66.965,9.438  c-6.665-0.45-13.357-1.294-19.998-2.499c6.519-39.99,33.021-69.322,58.671-97.692c6.28-6.946,12.475-13.804,18.221-20.688v5.393  c0,0.796,0.316,1.559,0.879,2.122l11.791,11.79v11.548l-9.205,9.205l-9.76-9.76v-11.826c0-1.656-1.344-3-3-3c-1.658,0-3,1.344-3,3  v13.067c0,0.797,0.315,1.56,0.879,2.121l12.76,12.762c0.586,0.586,1.354,0.879,2.121,0.879c0.767,0,1.535-0.293,2.121-0.878  l10.223-10.224l10.582,10.58c0.586,0.586,1.354,0.879,2.121,0.879c0.767,0,1.535-0.293,2.121-0.879l6.056-6.055  c-5.157,10.008-8.482,19.831-10.616,28.227c-5.001,19.679-4.684,35.273-4.58,38.025C301.473,443.243,297.666,444.733,293.8,446.095z   M416.238,306.471c-4.694,5.709-11.638,17.125-8.065,23.934c0.659,1.257,1.813,2.619,3.826,3.427l-21.493,30.282  c-0.161,0.227-0.271,0.471-0.363,0.72c-10.119,18.7-23.796,35.347-40.652,49.479c-11.76,9.858-24.591,18.09-38.3,24.604  c0.057-12.785,2.919-66.15,45.137-97.072c4.224-3.093,8.356-6.104,12.393-9.027c0.525-0.182,1.012-0.492,1.38-0.961l0.071-0.09  c24.397-17.66,44.957-32.002,58.036-41.01L416.238,306.471z"/><text x="0" y="527" fill="#000000" font-size="5px" font-weight="bold" font-family="'Helvetica Neue', Helvetica, Arial-Unicode, Arial, Sans-serif">Created by Chanut is Industries</text><text x="0" y="532" fill="#000000" font-size="5px" font-weight="bold" font-family="'Helvetica Neue', Helvetica, Arial-Unicode, Arial, Sans-serif">from the Noun Project</text></svg>