<svg xmlns="http://www.w3.org/2000/svg" xmlns:xlink="http://www.w3.org/1999/xlink" version="1.1" enable-background="new 0 0 512 512" xml:space="preserve" width="378" height="412" style=""><rect id="backgroundrect" width="100%" height="100%" x="0" y="0" fill="none" stroke="none"/><g class="currentLayer" style=""><title>Layer 1</title><path d="M5.833831359863282,288.5730746154785 c-0.546,-1.5630000000000002 -2.2560000000000002,-2.3890000000000002 -3.821,-1.844 c-1.564,0.547 -2.39,2.2560000000000002 -1.8450000000000002,3.8200000000000003 c2.856,8.188 6.343,16.238 10.36,23.93 c0.536,1.024 1.58,1.6110000000000002 2.662,1.6110000000000002 c0.468,0 0.9420000000000001,-0.10900000000000001 1.387,-0.3420000000000001 c1.468,-0.7690000000000001 2.036,-2.58 1.27,-4.049 C11.962831359863287,304.2680746154785 8.593831359863287,296.4890746154785 5.833831359863282,288.5730746154785 z" id="svg_1" class=""/><path d="M109.34483135986329,137.9730746154785 c-0.262,-1.182 -1.208,-2.091 -2.4,-2.305 c-1.188,-0.21200000000000002 -2.396,0.31100000000000005 -3.051,1.33 l-10.717,16.651 l-7.463,11.817 c-0.8850000000000001,1.401 -0.467,3.254 0.935,4.139 c0.49700000000000005,0.31400000000000006 1.051,0.464 1.5990000000000002,0.464 c0.995,0 1.969,-0.49500000000000005 2.539,-1.3980000000000001 l2.6660000000000004,-4.222 c0.126,-0.011000000000000003 0.252,-0.030000000000000006 0.37900000000000006,-0.05800000000000001 l7.918,-1.733 c0.05800000000000001,-0.013000000000000003 0.11500000000000002,-0.027000000000000007 0.17200000000000001,-0.04300000000000001 c6.799,-1.915 10.928,-8.816 9.4,-15.711 L109.34483135986329,137.9730746154785 z" id="svg_2" class=""/><path d="M376.7988313598633,225.67307461547853 c-1.006,-1.067 -2.64,-1.252 -3.854,-0.43700000000000006 c-0.14900000000000002,0.10200000000000001 -6.291,4.224 -16.751,11.438 l14.098,-39.184 c0.49100000000000005,-1.37 -0.06900000000000002,-2.895 -1.332,-3.619 c-1.262,-0.7230000000000001 -2.863,-0.43600000000000005 -3.795,0.6810000000000002 c-4.813,5.768 -9.85,11.879 -14.969,18.161 c-0.273,0.3370000000000001 -0.548,0.6770000000000002 -0.8210000000000001,1.014 c-1.5630000000000002,-16.149 -5.287,-31.938 -11.113,-47.04 c-10.665000000000001,-27.643 -28.064,-52.408 -50.316,-71.619 c-22.247,-19.207 -48.932,-32.738 -77.31,-39.273 c0.07800000000000001,-1.816 0.516,-3.623 1.352,-5.313 l22.807,-46.154 c0.6660000000000001,-1.346 0.231,-2.9779999999999998 -1.015,-3.817 c-1.243,-0.8370000000000001 -2.92,-0.6280000000000001 -3.917,0.49600000000000005 L187.6768313598633,48.462074615478514 c0.6730000000000002,-2.427 1.3170000000000002,-4.862 1.9260000000000002,-7.305 l1.054,-4.227 c0.47900000000000004,-1.925 -0.272,-3.886 -1.917,-4.996 c-1.6460000000000001,-1.11 -3.744,-1.073 -5.35,0.09100000000000003 l-72.496,52.606 c-15.114,10.968 -27.643,25.529 -36.226,42.104 L29.60683135986328,213.2850746154785 l-16.316,31.959 c-0.6400000000000001,1.254 -0.32200000000000006,2.783 0.7630000000000001,3.681 l20.095,16.571 c4.813,3.9699999999999998 10.616,5.941 16.408,5.941 c6.146,0 12.279,-2.223 17.191,-6.639 l106.595,-93.933 c0.776,-0.6980000000000002 1.436,-1.649 1.5950000000000002,-3.75 c0.010000000000000002,-0.003000000000000001 0.019000000000000003,-0.003000000000000001 0.028000000000000004,-0.006000000000000002 c0.232,-0.07100000000000001 23.483,-6.917 41.836,4.929 c11.897,7.68 19.238,21.57 21.815,41.284 c4.26,32.561 -18.918,58.193 -45.754,87.875 c-24.972,27.621 -53.227,58.896 -60.104,100.542 c-17.436,-3.746 -34.341,-9.979 -49.227,-18.291 c-10.206,-5.698 -19.922,-12.616 -28.876,-20.563 c-9.675,-8.586 -17.423000000000002,-18.016 -24.355,-26.926 l-0.232,-0.29900000000000004 c-1.863,-2.394 -3.624,-4.654 -5.157,-7.09 c-0.8830000000000001,-1.4020000000000001 -2.736,-1.824 -4.138,-0.9400000000000001 c-1.4020000000000001,0.8830000000000001 -1.823,2.7350000000000003 -0.9400000000000001,4.138 c1.693,2.688 3.629,5.174 5.5,7.578 l0.231,0.29900000000000004 c7.109,9.137 15.071,18.82 25.109,27.729 c9.278,8.232 19.35,15.403 29.934,21.313 c22.952,12.814 50.521,20.881 77.629,22.714 c3.6100000000000003,0.24400000000000002 7.249,0.36600000000000005 10.906,0.36600000000000005 c19.495,0 39.497,-3.449 58.458,-10.129 c21.024,-7.406 40.388,-18.457 57.551,-32.846000000000004 c17.487,-14.661 31.674,-31.949 42.164,-51.384 c0.04100000000000001,-0.07500000000000001 0.06400000000000002,-0.15500000000000003 0.09900000000000003,-0.233 l24.175,-34.062 c0.6760000000000002,-0.9530000000000001 0.7380000000000001,-2.211 0.15800000000000003,-3.225 c-0.5790000000000001,-1.016 -1.6920000000000002,-1.602 -2.859,-1.501 c-1.115,0.09500000000000003 -3.072,0.10600000000000001 -3.5940000000000003,-0.8900000000000001 c-1.271,-2.422 1.464,-10.152 7.4190000000000005,-17.375 c0.023000000000000007,-0.030000000000000006 0.04900000000000001,-0.06200000000000001 0.07100000000000001,-0.09200000000000003 l23.218,-30.487 C377.8898313598633,228.38007461547852 377.8038313598633,226.74007461547853 376.7988313598633,225.67307461547853 zM354.8468313598633,216.50507461547852 c1.332,-1.6360000000000001 2.6580000000000004,-3.259 3.977,-4.867 l-11.123,30.918 c-8.708,6.054 -19.324,13.507 -31.287,22.047 c10.572,-13.399000000000001 21.331,-26.971 32.146,-40.348 c0.5680000000000001,-0.35800000000000004 1.013,-0.8900000000000001 1.239,-1.528 C351.4798313598633,220.64907461547853 353.1618313598633,218.5730746154785 354.8468313598633,216.50507461547852 zM184.4108313598633,61.16707461547851 l35.13,-39.522 l-12.937,26.181 c-1.47,2.973 -2.129,6.193 -1.983,9.39 c-0.031000000000000007,0.09900000000000003 -0.07200000000000001,0.19100000000000003 -0.09600000000000003,0.29500000000000004 c-0.16700000000000004,0.777 -0.010000000000000002,1.544 0.37000000000000005,2.174 c0.30800000000000005,1.726 0.8490000000000001,3.423 1.6360000000000001,5.05 c2.6020000000000003,5.384 7.446,9.192 13.293,10.448 l3.922,0.8430000000000001 l-39.434,22.027 c0.16400000000000003,-7.83 -0.6100000000000001,-16.992 -2.85,-27.717 c-0.07900000000000001,-0.38200000000000006 -0.233,-0.7280000000000001 -0.43600000000000005,-1.035 c0.8980000000000001,-2.494 1.762,-4.999 2.591,-7.515 C183.90683135986328,61.62707461547852 184.17983135986327,61.42807461547852 184.4108313598633,61.16707461547851 zM194.63383135986328,121.2930746154785 c1.6940000000000002,6.3260000000000005 6.101,11.474 12.09,14.124 l5.457,2.414 l-42.193,2.482 c-0.11700000000000002,-0.37500000000000006 -0.22900000000000004,-0.7380000000000001 -0.35100000000000003,-1.122 c-0.133,-0.42200000000000004 -0.269,-0.8430000000000001 -0.402,-1.264 c3.41,-2.815 12.499,-12.151 14.646,-32.759 l22.152,-12.374 l-7.986,10.222 C194.18283135986326,108.30407461547853 192.9388313598633,114.9660746154785 194.63383135986328,121.2930746154785 zM177.04883135986327,79.7280746154785 c4.731,31.862000000000002 -5.077,46.7 -9.882,51.863 c-2.827,-8.478 -5.441,-15.668 -6.15,-17.603 l7.003,-14.122 C171.28683135986327,93.27907461547852 174.28983135986329,86.55307461547852 177.04883135986327,79.7280746154785 zM63.757831359863275,260.3210746154785 c-7.335,6.596 -18.183,6.825 -25.792,0.551 l-18.236,-15.041 l9.116,-17.855 c0.3370000000000001,0.10400000000000001 0.6930000000000002,0.16000000000000003 1.063,0.137 c3.22,-0.18400000000000002 6.303,0.8850000000000001 8.708,3.021 c2.404,2.137 3.832,5.082 4.021,8.294 c0.09400000000000003,1.594 1.416,2.823 2.992,2.823 c0.06000000000000001,0 0.11900000000000002,-0.0020000000000000005 0.17900000000000002,-0.006000000000000002 c1.6540000000000001,-0.09600000000000003 2.916,-1.517 2.819,-3.17 c-0.28300000000000003,-4.812 -2.423,-9.226 -6.024,-12.426 c-3.03,-2.693 -6.8,-4.244 -10.78,-4.505 l3.117,-6.104 l45.052,-86.536 c8.158,-15.754 20.063,-29.59 34.424,-40.012 l69.53,-50.456 l-0.16800000000000004,0.6730000000000002 c-4.94,19.835 -12.052,39.179 -21.135,57.492 l-7.26,14.639 c-0.549,1.109 -0.6340000000000001,2.416 -0.20800000000000002,3.654 c4.73,12.765 9.418,26.971 12.225,37.309 c-0.3980000000000001,0.14600000000000002 -0.773,0.37000000000000005 -1.093,0.6890000000000002 l-10.004,10.004 c-0.05400000000000001,-0.003000000000000001 -0.10500000000000001,-0.016000000000000004 -0.16000000000000003,-0.016000000000000004 c-0.005000000000000001,0 -0.010000000000000002,0.0010000000000000002 -0.015000000000000003,0.0010000000000000002 l-9.665000000000001,-9.666 v-11.826 c0,-1.657 -1.343,-3 -3,-3 c-1.657,0 -3,1.343 -3,3 v13.068 c0,0.795 0.31600000000000006,1.5590000000000002 0.8790000000000001,2.121 l11.801,11.801 v10.434 l-9.206,9.206 l-9.76,-9.76 v-11.825 c0,-1.657 -1.343,-3 -3,-3 c-1.657,0 -3,1.343 -3,3 v13.068 c0,0.795 0.31600000000000006,1.5590000000000002 0.8790000000000001,2.121 l10.926,10.926 L63.757831359863275,260.3210746154785 zM169.96683135986328,166.72707461547853 l-10.822,9.537 v-7.124 l9.874,-9.875 C169.81683135986327,162.85507461547851 170.18583135986327,165.49207461547851 169.96683135986328,166.72707461547853 zM245.56683135986327,212.54607461547852 c-2.816,-21.541 -11.063,-36.865 -24.512,-45.545 c-18.35,-11.845 -40.193,-7.348 -45.596000000000004,-5.968 c-0.5910000000000001,-3.467 -1.7360000000000002,-8.221 -3.6750000000000003,-14.818 l53.115,-3.124 c1.383,-0.08100000000000002 2.5300000000000002,-1.098 2.776,-2.461 c0.24600000000000002,-1.363 -0.47200000000000003,-2.717 -1.738,-3.277 l-16.784,-7.425 c-4.32,-1.911 -7.5,-5.625 -8.724,-10.188 c-1.222,-4.564 -0.32500000000000007,-9.371 2.403,-13.108 l16.024,-20.505 c0.17700000000000002,-0.22500000000000003 0.30200000000000005,-0.47000000000000003 0.402,-0.7220000000000001 l14.359,-8.021 c1.091,-0.6080000000000001 1.689,-1.8290000000000002 1.505,-3.064 c-0.18600000000000003,-1.235 -1.116,-2.226 -2.338,-2.488 l-11.701,-2.5140000000000002 c-3.9690000000000003,-0.8530000000000001 -7.26,-3.418 -9.068,-7.043 c26.412,6.54 51.209,19.382 72.006,37.337 c21.509,18.568 38.328,42.51 48.641,69.237 c1.271,3.293 2.435,6.622 3.497,9.979 l-6.585,6.29 l-9.809,-9.809 v-11.826 c0,-0.21000000000000002 -0.022000000000000006,-0.41600000000000004 -0.06300000000000001,-0.6140000000000001 c-0.23800000000000002,-1.419 -1.465,-2.502 -2.95,-2.502 c-1.657,0 -3,1.343 -3,3 v12.936 l-9.205,9.206 l-9.761,-9.76 v-11.826 c0,-0.23 -0.031000000000000007,-0.451 -0.08000000000000002,-0.6670000000000001 v-0.24700000000000003 c0,-1.657 -1.344,-3 -3,-3 c-1.657,0 -3,1.343 -3,3 v12.935 l-9.206,9.206 l-9.761,-9.76 v-11.826 c0,-1.657 -1.343,-3 -3,-3 c-1.6560000000000001,0 -3,1.343 -3,3 v13.068 c0,0.795 0.31600000000000006,1.5590000000000002 0.8800000000000001,2.121 l12.76,12.76 c0.5860000000000001,0.5860000000000001 1.354,0.8790000000000001 2.121,0.8790000000000001 c0.7670000000000001,0 1.5350000000000001,-0.29300000000000004 2.121,-0.8780000000000001 l10.223,-10.222 l10.582,10.581 c0.5630000000000001,0.5630000000000001 1.3250000000000002,0.8780000000000001 2.121,0.8780000000000001 s1.5590000000000002,-0.31600000000000006 2.121,-0.8790000000000001 l10.587,-10.587 l10.149000000000001,10.149000000000001 c0.5850000000000001,0.5850000000000001 1.354,0.8780000000000001 2.121,0.8780000000000001 c0.7460000000000001,0 1.492,-0.276 2.072,-0.8310000000000001 l6.472,-6.182 c3.142,11.458 5.085,23.234 5.814,35.189 c-14.395,17.806 -28.686,35.945 -42.563,53.563 l-2.543,3.229 c-0.41400000000000003,0.30100000000000005 -0.8360000000000001,0.6060000000000001 -1.2530000000000001,0.91 v-1.965 c0,-1.6560000000000001 -1.343,-3 -3,-3 c-1.6560000000000001,0 -3,1.344 -3,3 v6.324 c-1.9620000000000002,1.4300000000000002 -3.938,2.872 -5.938,4.338 c-2.917,2.137 -5.644,4.377 -8.208,6.689 c-2.52,-2.981 -4.172,-6.3950000000000005 -4.832,-9.836 v-6.846 c0.010000000000000002,-0.252 0,-0.5 -0.05100000000000001,-0.7400000000000001 c-0.24200000000000002,-1.4140000000000001 -1.467,-2.492 -2.949,-2.492 c-1.6400000000000001,0 -2.965,1.314 -2.9939999999999998,2.947 c-0.43200000000000005,2.486 -0.42300000000000004,5.047 -0.006000000000000002,7.5920000000000005 v5.396 l-9.206,9.205 l-9.76,-9.76 v-11.826 c0,-0.23 -0.031000000000000007,-0.453 -0.08100000000000002,-0.6700000000000002 v-0.24400000000000002 c0,-1.6560000000000001 -1.344,-3 -3,-3 c-1.657,0 -3,1.344 -3,3 v12.936 l-9.205,9.207 l-9.762,-9.762 v-11.581 C238.0558313598633,257.1210746154785 248.70683135986326,236.55507461547853 245.56683135986327,212.54607461547852 zM235.28583135986327,303.94207461547853 l9.354,-9.354 l9.511,9.511 c-0.277,3.074 -0.5760000000000001,6.5760000000000005 0.10200000000000001,9.903 v1.747 l-9.205,9.205 l-9.761,-9.762 L235.28583135986327,303.94207461547853 L235.28583135986327,303.94207461547853 zM260.2538313598633,313.35307461547853 c-0.0010000000000000002,-0.004000000000000001 -0.0020000000000000005,-0.008000000000000002 -0.003000000000000001,-0.012000000000000002 v-8.961 l10.173,-10.172 c0.771,1.217 1.645,2.3930000000000002 2.615,3.515 C268.1038313598633,302.71607461547853 263.8708313598633,307.9890746154785 260.2538313598633,313.35307461547853 zM226.6068313598633,395.98007461547854 c-21.754,7.665 -44.908,10.933 -66.965,9.438 c-6.665,-0.45 -13.357,-1.294 -19.998,-2.499 c6.519,-39.99 33.021,-69.322 58.671,-97.69200000000001 c6.28,-6.946 12.475,-13.804 18.221,-20.688 v5.393 c0,0.796 0.31600000000000006,1.5590000000000002 0.8790000000000001,2.122 l11.791,11.79 v11.548 l-9.205,9.205 l-9.76,-9.76 v-11.826 c0,-1.6560000000000001 -1.344,-3 -3,-3 c-1.6580000000000001,0 -3,1.344 -3,3 v13.067 c0,0.797 0.31500000000000006,1.56 0.8790000000000001,2.121 l12.76,12.762 c0.5860000000000001,0.5860000000000001 1.354,0.8790000000000001 2.121,0.8790000000000001 c0.7670000000000001,0 1.5350000000000001,-0.29300000000000004 2.121,-0.8780000000000001 l10.223,-10.224 l10.582,10.58 c0.5860000000000001,0.5860000000000001 1.354,0.8790000000000001 2.121,0.8790000000000001 c0.7670000000000001,0 1.5350000000000001,-0.29300000000000004 2.121,-0.8790000000000001 l6.056,-6.055 c-5.157,10.008 -8.482,19.831 -10.616,28.227 c-5.001,19.679 -4.684,35.273 -4.58,38.025 C234.2798313598633,393.1280746154785 230.47283135986328,394.6180746154785 226.6068313598633,395.98007461547854 zM349.0448313598633,256.3560746154785 c-4.694,5.709 -11.638,17.125 -8.065,23.934 c0.6590000000000001,1.2570000000000001 1.8130000000000002,2.619 3.826,3.427 l-21.493,30.282 c-0.16100000000000003,0.22700000000000004 -0.271,0.47100000000000003 -0.36300000000000004,0.7200000000000001 c-10.119,18.7 -23.796,35.347 -40.652,49.479 c-11.76,9.858 -24.591,18.09 -38.3,24.604 c0.05700000000000001,-12.785 2.919,-66.15 45.137,-97.072 c4.224,-3.093 8.356,-6.104 12.393,-9.027 c0.525,-0.18200000000000002 1.012,-0.49200000000000005 1.3800000000000001,-0.9610000000000001 l0.07100000000000001,-0.09000000000000002 c24.397,-17.66 44.957,-32.002 58.036,-41.01 L349.0448313598633,256.3560746154785 z" id="svg_3" class=""/></g></svg>