<svg xmlns="http://www.w3.org/2000/svg" data-name="LINE BLACK" viewBox="0 0 32 40" x="0px" y="0px"><title>map, place, destination, direction, quest, rpg, game</title><g data-name="dungeon maps copy 3"><path d="M9,14a1,1,0,0,1,1-1h2V11a1,1,0,0,1,2,0v2h7V9a1,1,0,0,1,2,0v4h1a1,1,0,0,1,0,2H18v6a1,1,0,0,1-2,0V19H14v4a1,1,0,0,1-2,0V19H11a1,1,0,0,1,0-2h5V15H10A1,1,0,0,1,9,14ZM30,6V28a1,1,0,0,1-1,1H6a4,4,0,0,1-4-4V7A4,4,0,0,1,6,3,1,1,0,0,1,7,4V5H29A1,1,0,0,1,30,6ZM4,7V21.55a3.85,3.85,0,0,1,1-.42V5.28A2,2,0,0,0,4,7ZM28,7H7V22a1,1,0,0,1-1,1,2,2,0,0,0,0,4H28ZM25,19a1,1,0,0,1,1,1v4a1,1,0,0,1-1,1H21a1,1,0,0,1-1-1V20a1,1,0,0,1,1-1Zm-1,2H22v2h2Z"/></g><text x="0" y="47" fill="#000000" font-size="5px" font-weight="bold" font-family="'Helvetica Neue', Helvetica, Arial-Unicode, Arial, Sans-serif">Created by Aziz Muttaqin</text><text x="0" y="52" fill="#000000" font-size="5px" font-weight="bold" font-family="'Helvetica Neue', Helvetica, Arial-Unicode, Arial, Sans-serif">from the Noun Project</text></svg>