<svg xmlns="http://www.w3.org/2000/svg" data-name="LINE BLACK" width="28" height="26"><rect id="backgroundrect" width="100%" height="100%" x="0" y="0" fill="none" stroke="none" class="" style=""/><title>map, place, destination, direction, quest, rpg, game</title><g class="currentLayer" style=""><title>Layer 1</title><g data-name="dungeon maps copy 3" id="svg_1" class=""><path d="M7,11 a1,1 0 0 1 1,-1 h2 V8 a1,1 0 0 1 2,0 v2 h7 V6 a1,1 0 0 1 2,0 v4 h1 a1,1 0 0 1 0,2 H16 v6 a1,1 0 0 1 -2,0 V16 H12 v4 a1,1 0 0 1 -2,0 V16 H9 a1,1 0 0 1 0,-2 h5 V12 H8 A1,1 0 0 1 7,11 zM28,3 V25 a1,1 0 0 1 -1,1 H4 a4,4 0 0 1 -4,-4 V4 A4,4 0 0 1 4,0 A1,1 0 0 1 5,1 V2 H27 A1,1 0 0 1 28,3 zM2,4 V18.55 a3.85,3.85 0 0 1 1,-0.42000000000000004 V2.2800000000000002 A2,2 0 0 0 2,4 zM26,4 H5 V19 a1,1 0 0 1 -1,1 a2,2 0 0 0 0,4 H26 zM23,16 a1,1 0 0 1 1,1 v4 a1,1 0 0 1 -1,1 H19 a1,1 0 0 1 -1,-1 V17 a1,1 0 0 1 1,-1 zm-1,2 H20 v2 h2 z" id="svg_2"/></g></g></svg>